<?xml version="1.0" encoding="UTF-8" standalone="no"?>
<!DOCTYPE svg PUBLIC "-//W3C//DTD SVG 1.1//EN" "http://www.w3.org/Graphics/SVG/1.1/DTD/svg11.dtd">
<svg width="100%" height="100%" viewBox="0 0 119 166" version="1.1" xmlns="http://www.w3.org/2000/svg" xmlns:xlink="http://www.w3.org/1999/xlink" xml:space="preserve" xmlns:serif="http://www.serif.com/" style="fill-rule:evenodd;clip-rule:evenodd;">
    <g transform="matrix(0.6,0,0,0.6,1.99406,1.21)">
        <g id="Page-1">
            <g id="mole">
                <path id="Shape" d="M94.768,0.91C94.524,0.91 94.194,0.948 93.929,0.952L93.929,0.994C79.303,1.164 43.747,4.26 30.667,36.13C24.149,27.465 30.662,36.133 9.636,16.19C9.636,16.19 -16.744,42.038 19.249,60.393C31.751,176.386 6.281,220.959 80.286,219.366C84.502,219.275 89.131,219.336 93.929,219.45L94.055,219.45L96.238,219.492L96.238,219.408C101.04,219.294 105.661,219.233 109.881,219.324C183.886,220.917 158.415,176.344 170.917,60.351C206.91,41.996 180.53,16.148 180.53,16.148C159.505,36.091 166.018,27.423 159.499,36.088C145.978,3.142 108.372,0.91 94.768,0.91L94.768,0.91Z" style="fill:rgb(51,51,51);stroke:black;stroke-width:5.81px;"/>
                <path id="Shape1" serif:id="Shape" d="M166.444,194.155C166.444,236.683 135.246,271.16 96.762,271.16C58.277,271.16 27.079,236.683 27.079,194.155C27.079,151.626 58.277,117.15 96.762,117.15C135.246,117.15 166.444,151.626 166.444,194.155Z" style="fill:rgb(147,147,159);stroke:black;stroke-width:2.71px;"/>
                <path id="Shape2" serif:id="Shape" d="M95.721,118.044C133.148,119.375 163.138,153.306 163.138,194.99C163.138,234.332 136.442,266.748 101.976,271.391C126.024,264.677 144.206,233.273 144.206,195.536C144.206,154.583 122.802,121.078 95.721,118.506L95.721,118.044Z" style="fill:rgb(127,127,141);"/>
                <path id="Shape3" serif:id="Shape" d="M95.54,116.904C58.112,118.235 28.122,152.166 28.122,193.851C28.122,233.193 54.819,265.609 89.285,270.252C65.237,263.538 47.055,232.133 47.055,194.396C47.055,153.443 68.458,119.939 95.54,117.366L95.54,116.904Z" style="fill:rgb(193,193,200);"/>
                <path id="Shape4" serif:id="Shape" d="M69.513,29.448C52.237,29.448 38.208,45.668 38.208,65.656C38.208,85.645 52.237,101.863 69.513,101.863C79.665,101.863 88.672,96.256 94.391,87.58C100.108,96.262 109.137,101.863 119.295,101.863C136.564,101.863 150.595,85.641 150.595,65.656C150.595,45.672 136.564,29.448 119.295,29.448C109.139,29.448 100.108,35.053 94.391,43.733C88.672,35.059 79.663,29.448 69.513,29.448Z" style="fill:white;stroke:black;stroke-width:5.48px;"/>
                <path id="Shape5" serif:id="Shape" d="M134.866,32.948C135.248,35.246 135.43,37.632 135.43,40.058C135.43,60.699 120.966,77.431 103.129,77.431C92.638,77.431 83.281,71.657 77.376,62.69C71.469,71.651 62.194,77.431 51.709,77.431C46.508,77.431 41.584,76.015 37.228,73.486C40.101,90.733 53.223,103.792 68.965,103.792C79.45,103.792 88.768,97.968 94.675,89.007C100.58,97.974 109.894,103.792 120.385,103.792C138.221,103.792 152.729,87.016 152.729,66.376C152.729,51.75 145.45,39.094 134.866,32.948Z" style="fill:rgb(165,165,165);fill-opacity:0.34;"/>
                <g id="Group" transform="matrix(1,0,0,1,73.9307,58.4114)">
                    <path id="Shape6" serif:id="Shape" d="M18.482,9.695C18.482,14.699 14.422,18.757 9.418,18.757C4.414,18.757 0.356,14.699 0.356,9.695C0.356,4.689 4.416,0.631 9.418,0.631C14.424,0.633 18.482,4.689 18.482,9.695Z" style="stroke:black;stroke-width:3.48px;"/>
                    <path id="Shape7" serif:id="Shape" d="M8.5,6.521C8.5,7.818 7.447,8.87 6.149,8.87C4.851,8.87 3.8,7.818 3.8,6.521C3.8,5.223 4.851,4.17 6.149,4.17C7.447,4.17 8.5,5.223 8.5,6.521Z" style="fill:white;"/>
                </g>
                <g id="Group1" serif:id="Group" transform="matrix(1,0,0,1,97.1708,58.4114)">
                    <path id="Shape8" serif:id="Shape" d="M18.193,9.695C18.193,14.699 14.136,18.757 9.131,18.757C4.125,18.757 0.068,14.699 0.068,9.695C0.068,4.689 4.125,0.631 9.131,0.631C14.138,0.631 18.193,4.689 18.193,9.695Z" style="stroke:black;stroke-width:3.48px;"/>
                    <path id="Shape9" serif:id="Shape" d="M8.21,6.521C8.21,7.818 7.158,8.87 5.86,8.87C4.563,8.87 3.511,7.818 3.511,6.521C3.511,5.223 4.563,4.17 5.86,4.17C7.158,4.17 8.21,5.223 8.21,6.521Z" style="fill:white;"/>
                </g>
                <path id="Shape10" serif:id="Shape" d="M7.263,25.594C7.263,25.594 -6.382,41.409 17.337,56.405C21.145,52.715 21.69,52.063 26.169,48.511L26.169,45.656C20.743,42.697 23.248,38.826 14.398,27.824L7.263,25.594Z" style="fill:url(#_Linear1);stroke:black;stroke-width:1.34px;"/>
                <path id="Shape11" serif:id="Shape" d="M184.264,26.297C184.264,26.297 197.909,42.112 174.19,57.108C170.382,53.419 169.837,52.766 165.358,49.214L165.358,46.36C170.785,43.4 168.28,39.529 177.129,28.528L184.264,26.297Z" style="fill:url(#_Linear2);stroke:black;stroke-width:1.34px;"/>
                <path id="Shape12" serif:id="Shape" d="M86.708,120.297C124.135,121.628 154.125,155.559 154.125,197.244C154.125,236.585 127.428,269.002 92.962,273.644C117.01,266.93 135.193,235.526 135.193,197.789C135.193,156.836 113.789,123.331 86.708,120.759L86.708,120.297Z" style="fill:rgb(127,127,141);"/>
                <path id="Shape13" serif:id="Shape" d="M95.053,91.069C83.507,91.069 73.55,96.76 68.984,104.959C58.453,108.211 51.689,113.314 51.689,119.038C51.689,120.615 52.235,122.158 53.2,123.614C52.475,125.303 52.109,127.062 52.109,128.867C52.109,141.91 72.108,152.477 96.774,152.477C121.44,152.477 141.439,141.91 141.439,128.867C141.439,126.791 140.921,124.774 139.97,122.856C140.639,121.63 141.019,120.344 141.019,119.038C141.019,112.77 132.898,107.26 120.618,104.092C115.85,96.358 106.19,91.069 95.053,91.069Z" style="fill:url(#_Linear3);stroke:black;stroke-width:2.69px;"/>
                <path id="Shape14" serif:id="Shape" d="M111.403,98.953C111.403,107.664 104.341,114.726 95.63,114.726C86.919,114.726 79.857,107.664 79.857,98.953C79.857,90.242 86.919,83.18 95.63,83.18C104.341,83.18 111.403,90.242 111.403,98.953Z"/>
                <rect id="Shape15" serif:id="Shape" x="76.485" y="132.95" width="17.878" height="27.243" style="fill:url(#_Linear4);stroke:black;stroke-width:3.05px;"/>
                <rect id="Shape16" serif:id="Shape" x="94.581" y="132.444" width="17.878" height="27.243" style="fill:url(#_Linear5);stroke:black;stroke-width:3.05px;"/>
                <path id="Shape17" serif:id="Shape" d="M59.578,123.739C85.551,138.236 109.84,135.896 132.809,120.359" style="fill:none;stroke:black;stroke-width:5.37px;"/>
            </g>
        </g>
    </g>
    <defs>
        <linearGradient id="_Linear1" x1="0" y1="0" x2="1" y2="0" gradientUnits="userSpaceOnUse" gradientTransform="matrix(24.1446,0,0,24.1446,2.69316,615.236)"><stop offset="0" style="stop-color:rgb(241,170,194);stop-opacity:1"/><stop offset="1" style="stop-color:rgb(229,99,143);stop-opacity:1"/></linearGradient>
        <linearGradient id="_Linear2" x1="0" y1="0" x2="1" y2="0" gradientUnits="userSpaceOnUse" gradientTransform="matrix(-24.1446,2.95686e-15,-2.95686e-15,-24.1446,188.834,615.236)"><stop offset="0" style="stop-color:rgb(241,170,194);stop-opacity:1"/><stop offset="1" style="stop-color:rgb(229,99,143);stop-opacity:1"/></linearGradient>
        <linearGradient id="_Linear3" x1="0" y1="0" x2="1" y2="0" gradientUnits="userSpaceOnUse" gradientTransform="matrix(56.3841,43.9389,-43.9389,56.3841,76.2448,102.606)"><stop offset="0" style="stop-color:rgb(255,206,174);stop-opacity:1"/><stop offset="1" style="stop-color:rgb(255,178,128);stop-opacity:1"/></linearGradient>
        <linearGradient id="_Linear4" x1="0" y1="0" x2="1" y2="0" gradientUnits="userSpaceOnUse" gradientTransform="matrix(20.9472,0,0,20.9472,74.9451,615.236)"><stop offset="0" style="stop-color:rgb(138,138,138);stop-opacity:1"/><stop offset="0.29" style="stop-color:rgb(241,241,241);stop-opacity:1"/><stop offset="1" style="stop-color:white;stop-opacity:1"/></linearGradient>
        <linearGradient id="_Linear5" x1="0" y1="0" x2="1" y2="0" gradientUnits="userSpaceOnUse" gradientTransform="matrix(20.9472,0,0,20.9472,93.0378,615.236)"><stop offset="0" style="stop-color:rgb(138,138,138);stop-opacity:1"/><stop offset="0.29" style="stop-color:rgb(241,241,241);stop-opacity:1"/><stop offset="1" style="stop-color:white;stop-opacity:1"/></linearGradient>
    </defs>
</svg>
